# File created by Blade
# Date/Time:  Thu Sep 25 19:43:58 2014
# Frame Rate: 120.000 fps
#------------------------------------------------------
:FULLY-SPECIFIED
:DEGREES
742
root 3.306364 13.272050 -10.122322 11.641616 17.370234 -22.211916
Spine 5.224279 3.237862 -36.868206
Head -20.323603 -12.077764 -24.907569
LeftShoulder -0.679724 7.759587 19.825289
LeftArm 17.885442 -5.164569 -57.627092
LeftForeArm 35.059127 -0.000000 15.564989
LeftHand -32.106959 -0.000000 111.983219
LeftHandThumb1 -26.253704 0.000000 33.147579
RightShoulder -21.480708 33.800722 -62.333358
RightArm 71.750039 35.197831 47.094111
RightForeArm 26.696687 -0.000000 23.219835
RightHand 3.036969 -0.000000 -5.282805
RightHandThumb1 -24.326973 -0.000000 -32.862282
LeftUpLeg -118.214906 44.408855 15.626634
LeftLeg 126.856955 -0.000000 -0.000000
LeftFoot -28.064830 -17.110480 -11.246746
LeftToeBase 3.533552 -0.000000 -0.000000
RightUpLeg -4.367812 -24.642973 -39.832101
RightLeg 7.988165 -0.000000 -0.000000
RightFoot 8.327116 -18.845891 -2.769913
RightToeBase 7.283481 -0.000000 -0.000000
743
root 3.308817 13.262252 -10.140165 11.703450 17.394069 -22.154909
Spine 5.381327 3.243187 -36.806708
Head -20.286433 -12.047608 -24.822932
LeftShoulder -0.682155 7.764786 19.788037
LeftArm 18.011494 -5.042551 -57.606217
LeftForeArm 34.851854 -0.000000 15.531121
LeftHand -32.160370 -0.000000 112.015721
LeftHandThumb1 -26.253704 0.000000 33.147579
RightShoulder -21.460355 33.822294 -62.329696
RightArm 71.704507 35.200449 47.149921
RightForeArm 26.643178 -0.000000 23.292381
RightHand 3.007951 -0.000000 -5.354874
RightHandThumb1 -24.326973 -0.000000 -32.862282
LeftUpLeg -118.404284 44.371138 15.442139
LeftLeg 126.859626 -0.000000 -0.000000
LeftFoot -27.984200 -17.112144 -11.152356
LeftToeBase 3.469316 -0.000000 -0.000000
RightUpLeg -4.383304 -24.730793 -39.902493
RightLeg 7.947812 -0.000000 -0.000000
RightFoot 8.352893 -18.787304 -2.715210
RightToeBase 7.253436 -0.000000 -0.000000
744
root 3.308372 13.254092 -10.157640 11.762737 17.430589 -22.132316
Spine 5.550274 3.255475 -36.720915
Head -20.320249 -12.021237 -24.693157
LeftShoulder -0.667393 7.684348 19.780438
LeftArm 18.039748 -4.933489 -57.621155
LeftForeArm 34.662924 -0.000000 15.557781
LeftHand -32.135386 -0.000000 112.029786
LeftHandThumb1 -26.253704 0.000000 33.147579
RightShoulder -21.238864 33.471597 -61.962636
RightArm 71.992486 35.557191 47.083372
RightForeArm 26.802925 -0.000000 23.299701
RightHand 2.999701 -0.000000 -5.256982
RightHandThumb1 -24.326973 -0.000000 -32.862282
LeftUpLeg -118.610610 44.332102 15.273660
LeftLeg 126.851452 -0.000000 -0.000000
LeftFoot -27.917423 -17.095114 -11.069009
LeftToeBase 3.378354 -0.000000 -0.000000
RightUpLeg -4.394068 -24.833144 -39.927916
RightLeg 7.886844 -0.000000 -0.000000
RightFoot 8.394055 -18.739095 -2.679652
RightToeBase 7.349040 -0.000000 -0.000000
745
root 3.311197 13.243852 -10.176296 11.814824 17.472369 -22.052002
Spine 5.739298 3.291043 -36.670942
Head -20.254102 -11.976814 -24.622964
LeftShoulder -0.592985 7.590788 19.753923
LeftArm 18.030917 -4.816782 -57.590377
LeftForeArm 34.453043 -0.000000 15.605382
LeftHand -32.204258 -0.000000 112.048165
LeftHandThumb1 -26.253704 0.000000 33.147579
RightShoulder -21.337582 33.594711 -62.129024
RightArm 71.771444 35.412176 47.116032
RightForeArm 26.679226 0.000000 23.366733
RightHand 3.029390 -0.000000 -5.261058
RightHandThumb1 -24.326973 -0.000000 -32.862282
LeftUpLeg -118.782880 44.264369 15.076680
LeftLeg 126.853558 -0.000000 -0.000000
LeftFoot -27.862409 -17.111655 -11.011918
LeftToeBase 3.407341 -0.000000 -0.000000
RightUpLeg -4.378330 -24.929333 -40.030762
RightLeg 7.850330 -0.000000 -0.000000
RightFoot 8.421634 -18.670342 -2.661392
RightToeBase 7.289083 -0.000000 -0.000000
746
root 3.311536 13.236983 -10.198497 11.915810 17.477649 -22.008643
Spine 5.840380 3.329528 -36.603388
Head -20.140599 -11.976506 -24.558715
LeftShoulder -0.530879 7.567783 19.720557
LeftArm 18.095172 -4.713999 -57.556138
LeftForeArm 34.286251 0.000000 15.627788
LeftHand -32.249351 -0.000000 112.078023
LeftHandThumb1 -26.253704 0.000000 33.147579
RightShoulder -21.167620 33.363248 -61.906060
RightArm 71.938147 35.641731 47.129521
RightForeArm 26.539785 -0.000000 23.377714
RightHand 2.978049 -0.000000 -5.200944
RightHandThumb1 -24.326973 -0.000000 -32.862282
LeftUpLeg -119.022861 44.230721 14.848069
LeftLeg 126.842934 -0.000000 -0.000000
LeftFoot -27.824468 -17.069124 -10.984473
LeftToeBase 3.411894 -0.000000 -0.000000
RightUpLeg -4.472515 -24.947431 -40.055875
RightLeg 7.842364 -0.000000 -0.000000
RightFoot 8.426460 -18.690349 -2.650638
RightToeBase 7.285867 -0.000000 -0.000000
747
root 3.312711 13.228451 -10.220686 12.007686 17.488665 -21.938924
Spine 5.963935 3.355079 -36.546659
Head -20.034453 -12.043113 -24.514882
LeftShoulder -0.463576 7.500113 19.677475
LeftArm 18.096666 -4.570002 -57.497312
LeftForeArm 34.052796 0.000000 15.664266
LeftHand -32.262343 0.000000 112.070468
LeftHandThumb1 -26.253704 0.000000 33.147579
RightShoulder -21.270221 33.576647 -62.092219
RightArm 71.633786 35.421902 47.060153
RightForeArm 26.508935 0.000000 23.417311
RightHand 3.023889 0.000000 -5.132971
RightHandThumb1 -24.326973 -0.000000 -32.862282
LeftUpLeg -119.223823 44.186123 14.643555
LeftLeg 126.834499 -0.000000 -0.000000
LeftFoot -27.762282 -17.046532 -10.896813
LeftToeBase 3.326122 -0.000000 -0.000000
RightUpLeg -4.541094 -24.978591 -40.117786
RightLeg 7.843693 -0.000000 -0.000000
RightFoot 8.441260 -18.647803 -2.672231
RightToeBase 7.420011 -0.000000 -0.000000
748
root 3.315208 13.220352 -10.242704 12.109814 17.499025 -21.863634
Spine 6.090826 3.395779 -36.501284
Head -19.930436 -12.115513 -24.449699
LeftShoulder -0.441112 7.459468 19.640379
LeftArm 18.235392 -4.477887 -57.492451
LeftForeArm 33.902086 -0.000000 15.581136
LeftHand -32.282316 0.000000 112.028306
LeftHandThumb1 -26.253704 0.000000 33.147579
RightShoulder -21.291713 33.622799 -62.127114
RightArm 71.489054 35.354116 46.927529
RightForeArm 26.418947 -0.000000 23.383242
RightHand 3.008843 -0.000000 -5.091794
RightHandThumb1 -24.326973 -0.000000 -32.862282
LeftUpLeg -119.439252 44.122115 14.398704
LeftLeg 126.830219 -0.000000 -0.000000
LeftFoot -27.778733 -16.982797 -10.871984
LeftToeBase 3.392830 -0.000000 -0.000000
RightUpLeg -4.597331 -25.062905 -40.186130
RightLeg 7.779553 -0.000000 -0.000000
RightFoot 8.484356 -18.647551 -2.688612
RightToeBase 7.316086 -0.000000 -0.000000
749
root 3.320115 13.212864 -10.264304 12.217656 17.520537 -21.767923
Spine 6.216998 3.407584 -36.470857
Head -19.835188 -12.180789 -24.395237
LeftShoulder -0.388771 7.428482 19.585088
LeftArm 18.222916 -4.161904 -57.357419
LeftForeArm 33.530927 -0.000000 15.745317
LeftHand -32.413050 -0.000000 111.836047
LeftHandThumb1 -26.253704 0.000000 33.147579
RightShoulder -21.168838 33.353680 -61.902130
RightArm 71.728181 35.531571 46.874832
RightForeArm 26.426847 -0.000000 23.279244
RightHand 2.977714 -0.000000 -5.106900
RightHandThumb1 -24.326973 -0.000000 -32.862282
LeftUpLeg -119.661991 44.042991 14.143885
LeftLeg 126.829975 -0.000000 -0.000000
LeftFoot -27.728208 -16.893044 -10.784069
LeftToeBase 3.326871 -0.000000 -0.000000
RightUpLeg -4.632445 -25.240321 -40.273252
RightLeg 7.699488 -0.000000 -0.000000
RightFoot 8.572317 -18.544492 -2.773076
RightToeBase 7.350260 -0.000000 -0.000000
750
root 3.325156 13.205264 -10.285915 12.337118 17.548277 -21.664338
Spine 6.301523 3.397243 -36.465048
Head -19.638492 -12.198815 -24.344414
LeftShoulder -0.251438 7.395506 19.595487
LeftArm 18.104430 -3.912088 -57.283020
LeftForeArm 33.185883 -0.000000 15.941108
LeftHand -32.506578 -0.000000 111.731447
LeftHandThumb1 -26.253704 0.000000 33.147579
RightShoulder -20.981027 33.216066 -61.704224
RightArm 71.770622 35.673938 46.843637
RightForeArm 26.514991 -0.000000 23.327480
RightHand 2.943747 -0.000000 -5.011819
RightHandThumb1 -24.326973 -0.000000 -32.862282
LeftUpLeg -119.873833 43.958359 13.892366
LeftLeg 126.823186 -0.000000 -0.000000
LeftFoot -27.704440 -16.859536 -10.735237
LeftToeBase 3.284686 -0.000000 -0.000000
RightUpLeg -4.664531 -25.413997 -40.367928
RightLeg 7.620467 -0.000000 -0.000000
RightFoot 8.629294 -18.459286 -2.802124
RightToeBase 7.305022 -0.000000 -0.000000
751
root 3.331627 13.194819 -10.307196 12.430266 17.565206 -21.525379
Spine 6.481097 3.398112 -36.497230
Head -19.635407 -12.270673 -24.229891
LeftShoulder -0.233163 7.237847 19.604346
LeftArm 18.077860 -3.765927 -57.282927
LeftForeArm 33.011270 -0.000000 15.940685
LeftHand -32.565956 0.000000 111.732482
LeftHandThumb1 -26.253704 0.000000 33.147579
RightShoulder -21.294888 33.819675 -62.302154
RightArm 70.930697 35.148373 46.807055
RightForeArm 26.309705 0.000000 23.571202
RightHand 2.882270 0.000000 -5.216974
RightHandThumb1 -24.326973 -0.000000 -32.862282
LeftUpLeg -120.032502 43.860265 13.652711
LeftLeg 126.829216 -0.000000 -0.000000
LeftFoot -27.671921 -16.820232 -10.706246
LeftToeBase 3.272256 -0.000000 -0.000000
RightUpLeg -4.676089 -25.528580 -40.510313
RightLeg 7.575870 -0.000000 -0.000000
RightFoot 8.656447 -18.383856 -2.864787
RightToeBase 7.406634 -0.000000 -0.000000
752
root 3.337409 13.187602 -10.329694 12.552654 17.579885 -21.425344
Spine 6.563012 3.383950 -36.489077
Head -19.479916 -12.321506 -24.178338
LeftShoulder -0.186059 7.189270 19.581195
LeftArm 18.121542 -3.704026 -57.282421
LeftForeArm 32.900058 -0.000000 15.896293
LeftHand -32.608906 -0.000000 111.705920
LeftHandThumb1 -26.253704 0.000000 33.147579
RightShoulder -21.157367 33.690149 -62.162503
RightArm 71.016514 35.262101 46.921690
RightForeArm 26.213811 -0.000000 23.658605
RightHand 2.853499 0.000000 -5.265226
RightHandThumb1 -24.326973 -0.000000 -32.862282
LeftUpLeg -120.236175 43.777862 13.413748
LeftLeg 126.828175 -0.000000 -0.000000
LeftFoot -27.643078 -16.775179 -10.681946
LeftToeBase 3.231656 -0.000000 -0.000000
RightUpLeg -4.726551 -25.703587 -40.594005
RightLeg 7.497082 -0.000000 -0.000000
RightFoot 8.701749 -18.349832 -2.979109
RightToeBase 7.314219 -0.000000 -0.000000
753
root 3.343240 13.180739 -10.349659 12.655240 17.583477 -21.337091
Spine 6.646782 3.410159 -36.482636
Head -19.335118 -12.425544 -24.114366
LeftShoulder -0.129551 7.121176 19.564277
LeftArm 18.162523 -3.662967 -57.289098
LeftForeArm 32.803541 -0.000000 15.863504
LeftHand -32.635951 -0.000000 111.745821
LeftHandThumb1 -26.253704 0.000000 33.147579
RightShoulder -21.069676 33.586796 -62.029210
RightArm 71.078040 35.315491 46.979115
RightForeArm 26.258902 -0.000000 23.718277
RightHand 2.858498 0.000000 -5.325979
RightHandThumb1 -24.326973 -0.000000 -32.862282
LeftUpLeg -120.409201 43.712629 13.211465
LeftLeg 126.825983 -0.000000 -0.000000
LeftFoot -27.609131 -16.739780 -10.664277
LeftToeBase 3.262586 -0.000000 -0.000000
RightUpLeg -4.762165 -25.872046 -40.668092
RightLeg 7.407470 -0.000000 -0.000000
RightFoot 8.763116 -18.251441 -3.089882
RightToeBase 7.195729 -0.000000 -0.000000
